<?xml version="1.0" standalone="no"?>
<!DOCTYPE svg PUBLIC "-//W3C//DTD SVG 20010904//EN"
 "http://www.w3.org/TR/2001/REC-SVG-20010904/DTD/svg10.dtd">
<svg version="1.0" xmlns="http://www.w3.org/2000/svg"
 width="2192.000000pt" height="702.000000pt" viewBox="0 0 2192.000000 702.000000"
 preserveAspectRatio="xMidYMid meet">

<g transform="translate(0.000000,702.000000) scale(0.100000,-0.100000)"
fill="#000000" stroke="none">
<path d="M2879 6552 c-94 -49 -103 -72 -163 -423 l-51 -303 -100 -32 c-153
-49 -228 -80 -373 -154 l-133 -68 -244 178 c-277 202 -298 212 -394 185 -53
-16 -67 -27 -282 -243 -125 -125 -234 -242 -243 -260 -29 -56 -31 -122 -8
-175 12 -26 92 -150 180 -275 87 -125 162 -232 165 -239 4 -6 -19 -65 -52
-130 -71 -142 -122 -270 -157 -396 l-27 -94 -251 -42 c-309 -52 -361 -65 -404
-98 -19 -14 -45 -49 -58 -77 -23 -50 -24 -55 -24 -366 0 -192 4 -330 11 -353
12 -43 68 -111 110 -132 21 -11 579 -115 617 -115 5 0 20 -37 32 -82 31 -107
108 -295 175 -427 l54 -105 -171 -244 c-190 -271 -205 -304 -187 -391 11 -51
19 -62 215 -266 248 -259 284 -288 369 -293 39 -3 73 1 95 10 20 8 142 92 273
186 l238 171 141 -71 c81 -41 209 -94 297 -123 l156 -52 47 -284 c50 -302 62
-347 104 -393 59 -63 76 -66 428 -66 221 0 331 4 359 12 47 14 103 66 123 113
7 18 34 156 59 307 25 150 47 282 50 294 4 16 20 25 72 39 134 36 483 185 483
206 0 6 -568 599 -574 599 -2 0 -34 -11 -72 -24 -280 -95 -612 -105 -889 -28
-517 144 -915 524 -1079 1030 -48 150 -67 260 -73 429 -16 445 133 832 446
1157 387 400 941 554 1496 415 220 -55 418 -158 601 -312 116 -98 168 -152
252 -265 305 -409 392 -970 224 -1453 l-20 -56 261 -244 c143 -134 280 -261
304 -283 l43 -38 61 128 c34 71 80 185 101 254 22 69 44 134 48 146 7 18 37
25 296 68 159 27 303 55 319 63 44 22 94 73 111 112 11 27 14 101 14 364 0
315 -1 333 -21 374 -24 50 -80 100 -126 112 -18 5 -159 31 -313 57 l-280 48
-20 70 c-36 125 -100 287 -165 417 l-63 127 174 248 c105 150 179 264 185 289
13 49 5 119 -19 156 -9 15 -113 126 -230 247 -144 149 -226 227 -255 241 -51
25 -123 27 -173 6 -19 -8 -143 -91 -274 -184 l-238 -170 -72 39 c-158 87 -402
185 -512 205 -21 4 -38 9 -38 10 0 34 -105 606 -115 624 -20 38 -75 88 -117
105 -31 13 -91 16 -357 16 l-319 0 -53 -28z"/>
<path d="M7085 4558 c-8 -33 -465 -2588 -465 -2599 0 -5 108 -9 260 -9 l260 0
5 23 c2 12 12 74 20 137 9 63 18 127 21 143 l6 27 176 -2 177 -3 11 -75 c6
-41 17 -114 24 -162 l12 -88 264 0 264 0 -5 23 c-7 30 -465 2589 -465 2599 0
4 -126 8 -280 8 l-280 0 -5 -22z m344 -1398 c28 -228 54 -425 56 -437 5 -23 5
-23 -116 -23 l-122 0 6 43 c3 23 30 223 59 444 29 222 55 399 59 395 3 -4 30
-194 58 -422z"/>
<path d="M8260 3265 l0 -1315 493 0 c294 0 518 4 556 11 135 21 221 85 257
190 18 52 19 102 19 1144 l0 1090 -30 55 c-33 60 -98 112 -163 130 -23 6 -243
10 -584 10 l-548 0 0 -1315z m810 829 c7 -17 9 -321 8 -845 -3 -716 -5 -821
-18 -829 -8 -5 -75 -10 -147 -10 l-133 0 0 855 0 855 140 0 140 0 10 -26z"/>
<path d="M9810 3265 l0 -1315 493 0 c294 0 518 4 556 11 135 21 218 83 257
191 18 51 19 97 22 1117 3 1168 5 1123 -57 1208 -19 26 -50 51 -88 69 l-58 29
-562 3 -563 2 0 -1315z m808 6 c2 -669 0 -846 -10 -853 -7 -4 -73 -8 -145 -8
l-133 0 0 855 0 856 143 -3 142 -3 3 -844z"/>
<path d="M11360 3265 l0 -1315 260 0 260 0 0 1315 0 1315 -260 0 -260 0 0
-1315z"/>
<path d="M12149 4538 c-6 -24 -35 -130 -65 -235 -30 -106 -54 -197 -54 -203 0
-6 61 -10 170 -10 l170 0 0 -1070 0 -1070 270 0 270 0 0 1070 0 1070 170 0
c146 0 170 2 170 15 0 9 -27 117 -60 241 -33 124 -60 227 -60 230 0 2 -218 4
-485 4 l-484 0 -12 -42z"/>
<path d="M13400 3265 l0 -1315 498 0 498 0 42 237 c24 131 43 241 42 246 0 4
-121 7 -270 7 l-270 0 0 285 0 285 213 2 212 3 3 228 2 227 -215 0 -215 0 0
310 0 310 280 0 c273 0 280 0 280 20 0 11 -18 117 -40 236 -22 119 -40 220
-40 225 0 5 -224 9 -510 9 l-510 0 0 -1315z"/>
<path d="M14887 4566 c-91 -33 -164 -109 -187 -198 -7 -24 -9 -416 -8 -1100 3
-1019 4 -1065 22 -1116 39 -108 122 -170 257 -191 73 -12 709 -15 709 -3 0 4
20 113 45 242 25 129 45 236 45 238 0 1 -117 2 -259 2 -257 0 -260 0 -275 22
-14 20 -16 113 -16 806 0 521 3 790 10 803 10 18 24 19 275 19 146 0 265 2
265 4 0 6 -79 438 -85 464 l-5 22 -378 0 c-291 -1 -386 -4 -415 -14z"/>
<path d="M15950 3265 l0 -1315 265 0 265 0 0 525 0 525 145 0 145 0 0 -525 0
-525 265 0 265 0 0 1315 0 1315 -265 0 -265 0 0 -560 0 -560 -145 0 -145 0 0
560 0 560 -265 0 -265 0 0 -1315z"/>
<path d="M17722 4563 c-68 -20 -133 -78 -169 -151 l-28 -57 -3 -535 c-2 -370
0 -551 8 -587 15 -69 57 -125 117 -154 45 -23 61 -24 275 -29 167 -4 230 -8
240 -18 10 -10 14 -78 16 -282 3 -260 3 -269 -17 -289 -20 -20 -32 -21 -314
-21 l-294 0 46 -242 47 -243 354 -3 c383 -3 451 3 538 44 60 29 100 81 129
165 17 50 18 97 18 609 l0 555 -23 47 c-49 100 -109 118 -398 118 -184 0 -213
2 -225 17 -11 13 -14 71 -14 283 0 212 3 270 14 283 12 15 48 17 328 17 l315
0 -6 28 c-3 15 -22 115 -41 222 -19 107 -38 205 -40 218 l-5 22 -408 -1 c-336
0 -416 -3 -460 -16z"/>
<path d="M18910 3265 l0 -1315 260 0 260 0 0 1315 0 1315 -260 0 -260 0 0
-1315z"/>
<path d="M19650 3265 l0 -1315 250 0 250 0 0 617 c0 339 2 614 4 612 2 -2 75
-231 161 -509 86 -278 160 -508 164 -512 3 -4 78 223 166 503 l160 510 3 -611
2 -610 255 0 255 0 0 1315 0 1315 -278 0 -277 0 -140 -545 c-77 -300 -142
-545 -145 -545 -3 0 -30 100 -61 223 -31 122 -94 367 -139 545 l-83 322 -273
0 -274 0 0 -1315z"/>
<path d="M3190 4439 c-153 -17 -308 -70 -337 -115 -13 -21 -5 -27 200 -162
220 -144 256 -175 291 -252 26 -58 27 -174 2 -245 -44 -122 -162 -269 -251
-311 -59 -28 -156 -32 -210 -10 -19 8 -130 76 -247 152 -117 75 -218 139 -225
141 -6 3 -18 -8 -26 -24 -12 -22 -13 -46 -6 -118 40 -423 330 -748 689 -772
73 -5 102 -2 194 22 176 45 247 24 404 -117 50 -46 566 -574 1146 -1175 978
-1011 1060 -1094 1119 -1123 226 -111 500 -1 583 233 49 138 34 270 -43 385
-36 53 -282 288 -1162 1111 -614 574 -1136 1068 -1161 1098 -105 126 -125 197
-97 364 28 169 30 219 12 314 -35 189 -120 314 -312 458 -109 82 -224 127
-366 147 -86 11 -89 11 -197 -1z m3015 -3518 c108 -49 164 -183 120 -288 -39
-93 -108 -142 -200 -143 -57 0 -137 33 -172 71 -77 84 -69 243 15 322 59 56
162 72 237 38z"/>
</g>
</svg>
